<svg width="1100" height="520" viewBox="0 0 1100 520" fill="none" xmlns="http://www.w3.org/2000/svg">
<g clip-path="url(#clip0_39_28)">
<path d="M1039.99 80.6558C1049.23 96.6371 1060.76 116.547 1057.03 133.857C1053.4 150.996 1034.41 165.704 1014.18 169.717C993.952 173.73 972.387 167.218 953.247 156.699C933.843 146.257 916.786 131.543 911.21 113.348C905.635 95.1525 911.634 73.3059 922.708 55.5841C933.954 37.9561 950.011 24.5299 966.576 22.7307C983.14 20.9315 1000.04 30.6654 1012.01 41.6909C1023.97 52.7163 1030.92 64.7684 1039.99 80.6558Z" fill="url(#paint0_linear_39_28)"/>
</g>
<g clip-path="url(#clip1_39_28)">
<path d="M413.238 874.642C370.206 935.414 294.536 966.705 238.924 938.321C183.473 909.077 148.456 822.063 97.9267 758.909C47.9344 696.801 -17.7325 659.412 -41.7908 596.095C-66.0111 533.638 -49.4842 445.926 -7.42385 390.314C33.7752 335.376 101.045 313.584 161.85 302.712C223.355 292.027 277.859 291.214 318.137 319.12C357.554 347.7 381.51 403.764 406.003 460.875C430.497 517.987 454.29 574.911 460.747 649.789C467.365 723.807 456.97 814.058 413.238 874.642Z" fill="url(#paint1_linear_39_28)"/>
</g>
<path d="M246.474 374.015C272.589 387.191 292.419 405.899 315.575 431.698C339.01 456.841 365.888 489.506 365.114 526.792C364.062 564.734 335.754 607.073 302.994 626.523C270.234 645.973 233.699 641.655 201.808 639.202C170.314 636.526 143.862 635.491 119.812 623.144C95.8794 611.228 74.7457 587.777 61.376 552.482C48.0063 517.187 42.7982 469.824 59.8559 433.325C77.311 396.601 117.032 370.74 153.151 361.847C189.271 352.954 220.756 360.615 246.474 374.015Z" fill="url(#paint2_linear_39_28)"/>
<defs>
<linearGradient id="paint0_linear_39_28" x1="886.971" y1="120.281" x2="1075.06" y2="47.2949" gradientUnits="userSpaceOnUse">
<stop stop-color="#0B2545"/>
<stop offset="1" stop-color="#134074"/>
</linearGradient>
<linearGradient id="paint1_linear_39_28" x1="0.174856" y1="227.057" x2="509.013" y2="917.604" gradientUnits="userSpaceOnUse">
<stop stop-color="#8DA9C4"/>
<stop offset="1" stop-color="#134074"/>
</linearGradient>
<linearGradient id="paint2_linear_39_28" x1="110.644" y1="734.905" x2="307.799" y2="277.371" gradientUnits="userSpaceOnUse">
<stop stop-color="#0B2545"/>
<stop offset="1" stop-color="#134074"/>
</linearGradient>
<clipPath id="clip0_39_28">
<rect width="195" height="195" fill="white" transform="translate(950.922 -41.5) rotate(28.793)"/>
</clipPath>
<clipPath id="clip1_39_28">
<rect width="875.055" height="723.768" fill="white" transform="matrix(-0.185164 0.982708 -0.966204 -0.257778 668.029 231.839)"/>
</clipPath>
</defs>
</svg>
