<svg width="20" height="20" viewBox="0 0 20 20" fill="none" xmlns="http://www.w3.org/2000/svg">
<path fill-rule="evenodd" clip-rule="evenodd" d="M4.4083 11.0582H7.74163C8.79245 11.0396 9.66052 11.8742 9.6833 12.9249V16.2582C9.67874 17.3103 8.82701 18.162 7.77497 18.1666H4.44163C3.39086 18.1805 2.52656 17.3423 2.5083 16.2916V12.9582C2.5083 11.9089 3.35896 11.0582 4.4083 11.0582ZM7.74163 16.9166C8.10522 16.9166 8.39997 16.6218 8.39997 16.2582V12.9249C8.39998 12.751 8.33036 12.5844 8.20665 12.4623C8.08294 12.3402 7.91546 12.2727 7.74163 12.2749H4.4083C4.23591 12.2749 4.07058 12.3434 3.94868 12.4653C3.82678 12.5872 3.7583 12.7525 3.7583 12.9249V16.2582C3.75827 16.6186 4.04797 16.912 4.4083 16.9166H7.74163Z" fill="#0B2545"/>
<path d="M6.71663 13.9832V13.5082C6.71663 13.163 6.43681 12.8832 6.09163 12.8832C5.74646 12.8832 5.46663 13.163 5.46663 13.5082V13.9832H4.99997C4.65479 13.9832 4.37497 14.263 4.37497 14.6082C4.37497 14.9534 4.65479 15.2332 4.99997 15.2332H5.47497V15.7166C5.47497 16.0617 5.75479 16.3416 6.09997 16.3416C6.44515 16.3416 6.72497 16.0617 6.72497 15.7166V15.2332H7.2083C7.55348 15.2332 7.8333 14.9534 7.8333 14.6082C7.8333 14.263 7.55348 13.9832 7.2083 13.9832H6.71663Z" fill="#0B2545"/>
<path fill-rule="evenodd" clip-rule="evenodd" d="M10.875 2.02489L16.7083 7.85822C16.8323 7.98449 16.8986 8.15638 16.8916 8.33322V14.1666C16.8916 16.3527 15.1194 18.1249 12.9333 18.1249H10.5416C10.1965 18.1249 9.91663 17.8451 9.91663 17.4999C9.91663 17.1547 10.1965 16.8749 10.5416 16.8749H12.9333C14.4291 16.8749 15.6416 15.6623 15.6416 14.1666V8.95822H12.1C10.8343 8.95822 9.8083 7.9322 9.8083 6.66655V3.11655H7.9333C6.43618 3.12115 5.22496 4.33609 5.22497 5.83322V9.99989C5.22497 10.3451 4.94515 10.6249 4.59997 10.6249C4.25479 10.6249 3.97497 10.3451 3.97497 9.99989V5.83322C3.96608 4.77764 4.37919 3.76224 5.12248 3.01268C5.86578 2.26313 6.87768 1.84152 7.9333 1.84155H10.4333C10.599 1.8417 10.7579 1.90764 10.875 2.02489ZM11.0583 3.97489V6.66655C11.0629 7.23859 11.5279 7.6999 12.1 7.69989H14.7833L11.0583 3.97489Z" fill="#0B2545"/>
</svg>
