<svg width="1920" height="1080" viewBox="0 0 1920 1080" fill="none" xmlns="http://www.w3.org/2000/svg">
<g clip-path="url(#clip0_39_52)">
<path d="M0 6.10352e-05H1920V1092H0V6.10352e-05Z" fill="#0B2545"/>
<path d="M873.546 1214C675.93 1195.34 391.583 917.885 835.121 -42.6392C1281.13 -65.2994 2175.34 -108.22 2184.12 -98.6232C2192.9 -89.0259 2222.55 59.998 2236.27 133.31L2249.99 1172.01L873.546 1214Z" fill="#13315C"/>
<path d="M330.98 462.301C341.655 665.059 107.168 993.377 -916.179 684.581C-1004.85 236.419 -1180.14 -662.476 -1171.87 -672.767C-1163.6 -683.058 -1019.42 -734.811 -948.362 -759.401L85.1765 -924.873L330.98 462.301Z" fill="#13315C"/>
<path d="M1605.68 297.411C1000.48 -97.7891 941.185 1116.08 987.185 1772.41C1134.02 1824.41 1473.28 1940.41 1655.68 1988.41C1883.68 2048.41 1821.68 1984.41 2078.18 1886.41C2334.68 1788.41 2242.18 1834.41 2256.18 1790.41C2267.38 1755.21 2423.52 1375.41 2500.18 1189.91C2454.18 1057.08 2210.88 692.611 1605.68 297.411Z" fill="#134074"/>
<path d="M-155.293 617.203C518.212 354.829 -434.646 -399.526 -995.263 -743.906C-1122.97 -654.721 -1414.68 -446.242 -1559.83 -325.801C-1741.26 -175.249 -1653.14 -188.45 -1722.64 77.1935C-1792.13 342.837 -1775.74 240.839 -1748.1 277.822C-1725.98 307.408 -1507.88 655.34 -1401.59 825.608C-1266.78 865.463 -828.799 879.578 -155.293 617.203Z" fill="#134074"/>
</g>
<defs>
<clipPath id="clip0_39_52">
<rect width="1920" height="1080" fill="white"/>
</clipPath>
</defs>
</svg>
