<svg width="25" height="25" viewBox="0 0 25 25" fill="none" xmlns="http://www.w3.org/2000/svg">
<path fill-rule="evenodd" clip-rule="evenodd" d="M23.4579 17.5041C22.8936 17.0214 22.5687 16.3159 22.5687 15.5733V9.4507C22.5687 4.43321 18.0212 0.381104 12.4067 0.381104C6.7922 0.381104 2.2447 4.43321 2.2447 9.4507V15.5733C2.24475 16.3159 1.91987 17.0214 1.35553 17.5041C-0.562553 19.2189 0.796616 22.1405 3.51496 22.1405H8.34191C8.95778 23.8559 10.5842 25 12.4067 25C14.2293 25 15.8557 23.8559 16.4715 22.1405H21.2985C24.0168 22.1405 25.376 19.2189 23.4579 17.5041ZM12.4064 23.0929C11.6503 23.0901 10.9378 22.7385 10.4756 22.1402H14.2863C13.8388 22.7291 13.1459 23.0802 12.4064 23.0929ZM21.3117 20.2353C21.7735 20.2771 22.2132 20.0295 22.4168 19.6129C22.5157 19.3619 22.4257 19.076 22.2009 18.9269C21.2438 18.0732 20.6905 16.8559 20.6766 15.5735V9.45084C20.6766 5.50036 16.9674 2.28662 12.4199 2.28662C7.87243 2.28662 4.1633 5.50036 4.1633 9.45084V15.5735C4.14937 16.8559 3.59606 18.0732 2.639 18.9269C2.40949 19.0722 2.31391 19.3589 2.41035 19.6129C2.61397 20.0295 3.05366 20.2771 3.51547 20.2353H21.3117Z" fill="#F4EDED"/>
</svg>
