<svg width="323" height="161" viewBox="0 0 323 161" fill="none" xmlns="http://www.w3.org/2000/svg">
<g clip-path="url(#clip0_39_250)">
<path d="M44.7087 78.6426C79.6972 107.69 99.9212 139.144 139.472 157.113C178.434 174.999 236.771 179.062 287.196 170.982C337.622 162.902 381.268 143.183 388.558 116.976C395.849 90.7677 367.914 58.5747 345.989 30.6734C323.474 2.68935 307.557 -20.9202 279.415 -34.5277C250.683 -48.2181 209.773 -52.2446 171.878 -52.0556C133.982 -51.8666 99.1002 -47.462 55.748 -38.3879C12.9853 -29.2309 -38.79 -15.8253 -39.7774 4.02944C-40.1753 23.967 9.67271 49.9327 44.7087 78.6426Z" fill="#134074"/>
</g>
<defs>
<clipPath id="clip0_39_250">
<rect width="341.36" height="595.246" fill="white" transform="matrix(-0.139187 0.990266 0.990266 0.139187 -87.4872 -174)"/>
</clipPath>
</defs>
</svg>
