<?xml version="1.0" encoding="utf-8"?>
<svg viewBox="20.812 63.778 471.285 66.457" xmlns="http://www.w3.org/2000/svg">
  <defs>
    <clipPath id="clippath">
      <path class="cls-3" d="m242.14,120.01c-4.77,0-8.94-.95-12.5-2.85-3.56-1.9-6.32-4.51-8.28-7.84-1.96-3.32-2.93-7.1-2.93-11.34s.95-8.08,2.85-11.38c1.9-3.3,4.53-5.88,7.88-7.76,3.35-1.88,7.17-2.81,11.46-2.81s7.91.91,11.18,2.73c3.27,1.82,5.84,4.4,7.72,7.72,1.88,3.32,2.81,7.24,2.81,11.74,0,.43-.01.91-.04,1.45-.03.54-.07,1.05-.12,1.53h-35.77v-6.67h30.47l-3.94,2.09c.05-2.46-.46-4.64-1.53-6.51-1.07-1.88-2.53-3.35-4.38-4.42-1.85-1.07-3.98-1.61-6.39-1.61s-4.62.54-6.47,1.61c-1.85,1.07-3.3,2.56-4.34,4.46-1.05,1.9-1.57,4.14-1.57,6.71v1.61c0,2.57.59,4.85,1.77,6.83,1.18,1.98,2.84,3.51,4.98,4.58,2.14,1.07,4.61,1.61,7.4,1.61,2.41,0,4.58-.37,6.51-1.13,1.93-.75,3.64-1.93,5.14-3.54l5.39,6.19c-1.93,2.25-4.36,3.98-7.28,5.18-2.92,1.21-6.26,1.81-10.01,1.81Z"/>
    </clipPath>
    <style>
      .cls-1 {
        fill: #0b2545;
      }

      .cls-2 {
        fill: #134074;
      }

      .cls-3, .cls-4 {
        fill: none;
      }

      .cls-4 {
        clip-path: url(#clippath);
      }
    </style>
  </defs>
  <path class="cls-2" d="M 55.581 126.963 C 51.291 126.963 47.311 126.253 43.641 124.833 C 39.971 123.413 36.781 121.403 34.071 118.803 C 31.361 116.203 29.261 113.133 27.761 109.593 C 26.261 106.053 25.511 102.193 25.511 98.013 C 25.511 93.833 26.261 89.973 27.761 86.433 C 29.261 82.893 31.381 79.833 34.111 77.223 C 36.841 74.623 40.031 72.613 43.681 71.193 C 47.321 69.773 51.321 69.063 55.661 69.063 C 60.271 69.063 64.481 69.853 68.281 71.433 C 72.091 73.013 75.301 75.363 77.931 78.463 L 71.181 84.813 C 69.141 82.613 66.871 80.963 64.351 79.873 C 61.831 78.773 59.101 78.223 56.151 78.223 C 53.201 78.223 50.511 78.703 48.071 79.673 C 45.631 80.633 43.511 82.003 41.721 83.773 C 39.921 85.543 38.531 87.633 37.541 90.043 C 36.551 92.453 36.051 95.103 36.051 98.003 C 36.051 100.903 36.541 103.553 37.541 105.963 C 38.531 108.373 39.921 110.463 41.721 112.233 C 43.521 114.003 45.631 115.373 48.071 116.333 C 50.511 117.293 53.201 117.783 56.151 117.783 C 59.101 117.783 61.831 117.233 64.351 116.133 C 66.871 115.033 69.151 113.363 71.181 111.113 L 77.931 117.543 C 75.301 120.603 72.091 122.933 68.281 124.533 C 64.471 126.143 60.241 126.943 55.581 126.943 L 55.581 126.963 Z" transform="matrix(1, 0, 0, 1, 0, 3.552713678800501e-15)"/>
  <path class="cls-2" d="M 104.701 126.723 C 100.301 126.723 96.391 125.773 92.961 123.873 C 89.531 121.973 86.821 119.363 84.841 116.033 C 82.861 112.713 81.871 108.933 81.871 104.693 C 81.871 100.453 82.861 96.613 84.841 93.313 C 86.821 90.013 89.531 87.433 92.961 85.553 C 96.391 83.673 100.301 82.743 104.701 82.743 C 109.101 82.743 113.101 83.683 116.561 85.553 C 120.021 87.433 122.721 90.003 124.681 93.273 C 126.641 96.543 127.621 100.343 127.621 104.693 C 127.621 109.043 126.641 112.703 124.681 116.033 C 122.721 119.353 120.021 121.973 116.561 123.873 C 113.101 125.773 109.151 126.723 104.701 126.723 Z M 104.701 118.123 C 107.161 118.123 109.361 117.583 111.291 116.513 C 113.221 115.443 114.731 113.883 115.831 111.853 C 116.931 109.813 117.481 107.433 117.481 104.703 C 117.481 101.973 116.931 99.513 115.831 97.513 C 114.731 95.503 113.221 93.963 111.291 92.893 C 109.361 91.823 107.191 91.283 104.781 91.283 C 102.371 91.283 100.131 91.823 98.231 92.893 C 96.331 93.963 94.811 95.503 93.691 97.513 C 92.561 99.523 92.001 101.923 92.001 104.703 C 92.001 107.483 92.561 109.823 93.691 111.853 C 94.821 113.893 96.331 115.443 98.231 116.513 C 100.131 117.583 102.291 118.123 104.701 118.123 Z" transform="matrix(1, 0, 0, 1, 0, 3.552713678800501e-15)"/>
  <path class="cls-2" d="M 161.611 82.753 C 165.041 82.753 168.111 83.423 170.821 84.763 C 173.531 86.103 175.661 88.153 177.211 90.913 C 178.761 93.673 179.541 97.223 179.541 101.563 L 179.541 126.163 L 169.491 126.163 L 169.491 102.853 C 169.491 99.043 168.591 96.203 166.801 94.333 C 165.001 92.453 162.501 91.523 159.281 91.523 C 156.921 91.523 154.831 92.003 153.011 92.973 C 151.191 93.933 149.781 95.373 148.791 97.273 C 147.801 99.173 147.301 101.573 147.301 104.463 L 147.301 126.173 L 137.251 126.173 L 137.251 83.243 L 146.821 83.243 L 146.821 94.823 L 145.131 91.283 C 146.631 88.553 148.811 86.443 151.681 84.973 C 154.551 83.503 157.861 82.763 161.611 82.763 L 161.611 82.753 Z" transform="matrix(1, 0, 0, 1, 0, 3.552713678800501e-15)"/>
  <path class="cls-2" d="M 216.681 82.753 C 220.111 82.753 223.181 83.423 225.891 84.763 C 228.601 86.103 230.731 88.153 232.281 90.913 C 233.831 93.673 234.611 97.223 234.611 101.563 L 234.611 126.163 L 224.561 126.163 L 224.561 102.853 C 224.561 99.043 223.661 96.203 221.871 94.333 C 220.071 92.453 217.571 91.523 214.351 91.523 C 211.991 91.523 209.901 92.003 208.081 92.973 C 206.261 93.933 204.851 95.373 203.861 97.273 C 202.871 99.173 202.371 101.573 202.371 104.463 L 202.371 126.173 L 192.321 126.173 L 192.321 83.243 L 201.891 83.243 L 201.891 94.823 L 200.201 91.283 C 201.701 88.553 203.881 86.443 206.751 84.973 C 209.621 83.503 212.931 82.763 216.681 82.763 L 216.681 82.753 Z" transform="matrix(1, 0, 0, 1, 0, 3.552713678800501e-15)"/>
  <g class="cls-4" transform="matrix(1, 0, 0, 1, 25.511201858520515, 6.713473796844486)">
    <g>
      <rect class="cls-2" x="72.53" y="11.85" width="186.97" height="169.86"/>
      <path class="cls-1" d="m239.95,46.06c-1.36,11.24,17.32,31.65,8.55,42.77-1.51,1.91-2.95,2.44-4.89,3.67-14.4,9.11-21.47,34.89-17.11,46.44,5.9,15.63,38.23,15.93,102.65,15.89,132.66-.08,147.13-1.31,163.75-15.89,25.66-22.51,44.88-66.72,30.55-96.54-36.5-75.98-278.95-34-283.51,3.67Z"/>
    </g>
  </g>
  <path class="cls-1" d="M 317.171 126.723 C 312.671 126.723 308.661 125.773 305.151 123.873 C 301.641 121.973 298.891 119.363 296.911 116.033 C 294.931 112.713 293.941 108.933 293.941 104.693 C 293.941 100.453 294.931 96.613 296.911 93.313 C 298.891 90.013 301.641 87.433 305.151 85.553 C 308.661 83.673 312.671 82.743 317.171 82.743 C 321.351 82.743 325.031 83.583 328.221 85.273 C 331.411 86.963 333.831 89.443 335.501 92.713 L 327.781 97.213 C 326.491 95.173 324.931 93.673 323.081 92.713 C 321.231 91.753 319.231 91.263 317.091 91.263 C 314.621 91.263 312.401 91.803 310.421 92.873 C 308.441 93.943 306.881 95.483 305.761 97.493 C 304.631 99.503 304.071 101.903 304.071 104.683 C 304.071 107.463 304.631 109.863 305.761 111.873 C 306.891 113.883 308.441 115.423 310.421 116.493 C 312.401 117.563 314.631 118.103 317.091 118.103 C 319.231 118.103 321.231 117.623 323.081 116.653 C 324.931 115.693 326.501 114.193 327.781 112.153 L 335.501 116.653 C 333.841 119.873 331.411 122.353 328.221 124.093 C 325.031 125.833 321.351 126.703 317.171 126.703 L 317.171 126.723 Z" transform="matrix(1, 0, 0, 1, 0, 3.552713678800501e-15)"/>
  <path class="cls-1" d="M 339.041 91.593 L 339.041 83.553 L 367.661 83.553 L 367.661 91.593 L 339.041 91.593 Z M 360.911 126.723 C 356.191 126.723 352.551 125.503 349.981 123.063 C 347.411 120.623 346.121 117.023 346.121 112.253 L 346.121 73.743 L 356.171 73.743 L 356.171 112.013 C 356.171 114.053 356.691 115.633 357.741 116.753 C 358.781 117.883 360.241 118.443 362.121 118.443 C 364.371 118.443 366.251 117.853 367.751 116.673 L 370.561 123.823 C 369.381 124.783 367.931 125.513 366.221 125.993 C 364.501 126.473 362.741 126.713 360.911 126.713 L 360.911 126.723 Z" transform="matrix(1, 0, 0, 1, 0, 3.552713678800501e-15)"/>
  <path class="cls-1" d="M 410.941 127.323 C 402.151 127.323 395.291 124.943 390.381 120.193 C 385.471 115.443 383.011 108.783 383.011 100.203 L 383.011 68.663 L 402.341 68.663 L 402.341 99.633 C 402.341 104.003 403.131 107.103 404.721 108.933 C 406.301 110.763 408.431 111.673 411.111 111.673 C 413.791 111.673 415.981 110.763 417.541 108.933 C 419.101 107.103 419.871 104.003 419.871 99.633 L 419.871 68.663 L 438.881 68.663 L 438.881 100.203 C 438.881 108.783 436.421 115.443 431.511 120.193 C 426.601 124.943 419.741 127.323 410.951 127.323 L 410.941 127.323 Z" transform="matrix(1, 0, 0, 1, 0, 3.552713678800501e-15)"/>
  <path class="cls-1" d="M 464.681 126.833 C 460.861 126.833 457.091 126.423 453.371 125.603 C 449.661 124.783 446.651 123.723 444.361 122.413 L 449.441 110.203 C 451.571 111.463 454.041 112.443 456.851 113.153 C 459.661 113.863 462.411 114.223 465.081 114.223 C 467.321 114.223 468.831 114.033 469.631 113.653 C 470.421 113.273 470.821 112.753 470.821 112.093 C 470.821 111.433 470.361 110.963 469.431 110.663 C 468.501 110.363 467.271 110.133 465.741 109.963 C 464.211 109.803 462.531 109.593 460.701 109.353 C 458.871 109.103 457.031 108.733 455.171 108.243 C 453.311 107.753 451.621 107.013 450.091 106.033 C 448.561 105.053 447.331 103.723 446.401 102.063 C 445.471 100.393 445.011 98.283 445.011 95.713 C 445.011 92.873 445.871 90.303 447.591 88.013 C 449.311 85.723 451.881 83.873 455.291 82.483 C 458.701 81.093 462.921 80.393 467.951 80.393 C 471.231 80.393 474.501 80.693 477.781 81.293 C 481.061 81.893 483.871 82.823 486.221 84.083 L 481.141 96.293 C 478.851 95.033 476.591 94.173 474.381 93.713 C 472.171 93.253 470.111 93.013 468.191 93.013 C 465.841 93.013 464.241 93.233 463.401 93.673 C 462.551 94.113 462.131 94.603 462.131 95.143 C 462.131 95.803 462.591 96.293 463.521 96.613 C 464.451 96.933 465.681 97.183 467.211 97.353 C 468.741 97.513 470.421 97.723 472.251 97.963 C 474.081 98.213 475.911 98.593 477.741 99.113 C 479.571 99.633 481.251 100.383 482.781 101.363 C 484.311 102.343 485.541 103.673 486.471 105.333 C 487.401 107.003 487.861 109.113 487.861 111.683 C 487.861 114.253 487.011 116.863 485.321 119.183 C 483.631 121.503 481.061 123.363 477.621 124.753 C 474.181 126.143 469.861 126.843 464.681 126.843 L 464.681 126.833 Z" transform="matrix(1, 0, 0, 1, 0, 3.552713678800501e-15)"/>
</svg>