<?xml version="1.0" encoding="UTF-8"?>
<svg id="Warstwa_1" data-name="Warstwa 1" xmlns="http://www.w3.org/2000/svg" xmlns:xlink="http://www.w3.org/1999/xlink" viewBox="0 0 528.35 232.28">
  <defs>
    <style>
      .cls-1 {
        fill: #eef4ed;
      }

      .cls-2 {
        fill: #f3fcf2;
      }

      .cls-3, .cls-4 {
        fill: none;
      }

      .cls-4 {
        clip-path: url(#clippath);
      }
    </style>
    <clipPath id="clippath">
      <path class="cls-3" d="m242.14,120.01c-4.77,0-8.94-.95-12.5-2.85-3.56-1.9-6.32-4.51-8.28-7.84-1.96-3.32-2.93-7.1-2.93-11.34s.95-8.08,2.85-11.38c1.9-3.3,4.53-5.88,7.88-7.76,3.35-1.88,7.17-2.81,11.46-2.81s7.91.91,11.18,2.73c3.27,1.82,5.84,4.4,7.72,7.72,1.88,3.32,2.81,7.24,2.81,11.74,0,.43-.01.91-.04,1.45-.03.54-.07,1.05-.12,1.53h-35.77v-6.67h30.47l-3.94,2.09c.05-2.46-.46-4.64-1.53-6.51-1.07-1.88-2.53-3.35-4.38-4.42-1.85-1.07-3.98-1.61-6.39-1.61s-4.62.54-6.47,1.61c-1.85,1.07-3.3,2.56-4.34,4.46-1.05,1.9-1.57,4.14-1.57,6.71v1.61c0,2.57.59,4.85,1.77,6.83,1.18,1.98,2.84,3.51,4.98,4.58,2.14,1.07,4.61,1.61,7.4,1.61,2.41,0,4.58-.37,6.51-1.13,1.93-.75,3.64-1.93,5.14-3.54l5.39,6.19c-1.93,2.25-4.36,3.98-7.28,5.18-2.92,1.21-6.26,1.81-10.01,1.81Z"/>
    </clipPath>
  </defs>
  <path class="cls-1" d="m30.07,120.25c-4.29,0-8.27-.71-11.94-2.13-3.67-1.42-6.86-3.43-9.57-6.03-2.71-2.6-4.81-5.67-6.31-9.21-1.5-3.54-2.25-7.4-2.25-11.58s.75-8.04,2.25-11.58c1.5-3.54,3.62-6.6,6.35-9.21,2.73-2.6,5.92-4.61,9.57-6.03,3.64-1.42,7.64-2.13,11.98-2.13,4.61,0,8.82.79,12.62,2.37,3.81,1.58,7.02,3.93,9.65,7.03l-6.75,6.35c-2.04-2.2-4.31-3.85-6.83-4.94-2.52-1.1-5.25-1.65-8.2-1.65s-5.64.48-8.08,1.45c-2.44.96-4.56,2.33-6.35,4.1-1.8,1.77-3.19,3.86-4.18,6.27-.99,2.41-1.49,5.06-1.49,7.96s.49,5.55,1.49,7.96c.99,2.41,2.38,4.5,4.18,6.27,1.8,1.77,3.91,3.14,6.35,4.1,2.44.96,5.13,1.45,8.08,1.45s5.68-.55,8.2-1.65c2.52-1.1,4.8-2.77,6.83-5.02l6.75,6.43c-2.63,3.06-5.84,5.39-9.65,6.99-3.81,1.61-8.04,2.41-12.7,2.41Z"/>
  <path class="cls-1" d="m79.19,120.01c-4.4,0-8.31-.95-11.74-2.85-3.43-1.9-6.14-4.51-8.12-7.84-1.98-3.32-2.97-7.1-2.97-11.34s.99-8.08,2.97-11.38c1.98-3.3,4.69-5.88,8.12-7.76,3.43-1.88,7.34-2.81,11.74-2.81s8.4.94,11.86,2.81c3.46,1.88,6.16,4.45,8.12,7.72,1.96,3.27,2.94,7.07,2.94,11.42s-.98,8.01-2.94,11.34c-1.96,3.32-4.66,5.94-8.12,7.84-3.46,1.9-7.41,2.85-11.86,2.85Zm0-8.6c2.46,0,4.66-.54,6.59-1.61s3.44-2.63,4.54-4.66c1.1-2.04,1.65-4.42,1.65-7.15s-.55-5.19-1.65-7.19c-1.1-2.01-2.61-3.55-4.54-4.62-1.93-1.07-4.1-1.61-6.51-1.61s-4.65.54-6.55,1.61c-1.9,1.07-3.42,2.61-4.54,4.62-1.13,2.01-1.69,4.41-1.69,7.19s.56,5.12,1.69,7.15c1.13,2.04,2.64,3.59,4.54,4.66,1.9,1.07,4.06,1.61,6.47,1.61Z"/>
  <path class="cls-1" d="m136.1,76.04c3.43,0,6.5.67,9.21,2.01,2.71,1.34,4.84,3.39,6.39,6.15,1.55,2.76,2.33,6.31,2.33,10.65v24.6h-10.05v-23.31c0-3.81-.9-6.65-2.69-8.52-1.8-1.88-4.3-2.81-7.52-2.81-2.36,0-4.45.48-6.27,1.45-1.82.96-3.23,2.4-4.22,4.3-.99,1.9-1.49,4.3-1.49,7.19v21.71h-10.05v-42.93h9.57v11.58l-1.69-3.54c1.5-2.73,3.68-4.84,6.55-6.31,2.87-1.47,6.18-2.21,9.93-2.21Z"/>
  <path class="cls-1" d="m191.17,76.04c3.43,0,6.5.67,9.21,2.01,2.71,1.34,4.84,3.39,6.39,6.15,1.55,2.76,2.33,6.31,2.33,10.65v24.6h-10.05v-23.31c0-3.81-.9-6.65-2.69-8.52-1.8-1.88-4.3-2.81-7.52-2.81-2.36,0-4.45.48-6.27,1.45-1.82.96-3.23,2.4-4.22,4.3-.99,1.9-1.49,4.3-1.49,7.19v21.71h-10.05v-42.93h9.57v11.58l-1.69-3.54c1.5-2.73,3.68-4.84,6.55-6.31,2.87-1.47,6.18-2.21,9.93-2.21Z"/>
  <g class="cls-4">
    <g>
      <rect class="cls-1" x="72.53" y="11.85" width="186.97" height="169.86"/>
      <path class="cls-2" d="m239.95,46.06c-1.36,11.24,17.32,31.65,8.55,42.77-1.51,1.91-2.95,2.44-4.89,3.67-14.4,9.11-21.47,34.89-17.11,46.44,5.9,15.63,38.23,15.93,102.65,15.89,132.66-.08,147.13-1.31,163.75-15.89,25.66-22.51,44.88-66.72,30.55-96.54-36.5-75.98-278.95-34-283.51,3.67Z"/>
    </g>
  </g>
  <path class="cls-2" d="m291.66,120.01c-4.5,0-8.51-.95-12.02-2.85-3.51-1.9-6.26-4.51-8.24-7.84-1.98-3.32-2.97-7.1-2.97-11.34s.99-8.08,2.97-11.38c1.98-3.3,4.73-5.88,8.24-7.76,3.51-1.88,7.52-2.81,12.02-2.81,4.18,0,7.86.84,11.05,2.53,3.19,1.69,5.61,4.17,7.28,7.44l-7.72,4.5c-1.29-2.04-2.85-3.54-4.7-4.5-1.85-.96-3.85-1.45-5.99-1.45-2.47,0-4.69.54-6.67,1.61-1.98,1.07-3.54,2.61-4.66,4.62-1.13,2.01-1.69,4.41-1.69,7.19s.56,5.18,1.69,7.19,2.68,3.55,4.66,4.62c1.98,1.07,4.21,1.61,6.67,1.61,2.14,0,4.14-.48,5.99-1.45,1.85-.96,3.42-2.46,4.7-4.5l7.72,4.5c-1.66,3.22-4.09,5.7-7.28,7.44-3.19,1.74-6.87,2.61-11.05,2.61Z"/>
  <path class="cls-2" d="m313.53,84.88v-8.04h28.62v8.04h-28.62Zm21.87,35.13c-4.72,0-8.36-1.22-10.93-3.66-2.57-2.44-3.86-6.04-3.86-10.81v-38.51h10.05v38.27c0,2.04.52,3.62,1.57,4.74,1.04,1.13,2.5,1.69,4.38,1.69,2.25,0,4.13-.59,5.63-1.77l2.81,7.15c-1.18.96-2.63,1.69-4.34,2.17-1.72.48-3.48.72-5.31.72Z"/>
  <path class="cls-2" d="m385.43,120.61c-8.79,0-15.65-2.38-20.56-7.13-4.91-4.75-7.37-11.41-7.37-19.99v-31.54h19.33v30.97c0,4.37.79,7.47,2.38,9.3,1.58,1.83,3.71,2.74,6.39,2.74s4.87-.91,6.43-2.74c1.56-1.83,2.33-4.93,2.33-9.3v-30.97h19.01v31.54c0,8.58-2.46,15.24-7.37,19.99-4.91,4.75-11.77,7.13-20.56,7.13Z"/>
  <path class="cls-2" d="m439.17,120.12c-3.82,0-7.59-.41-11.31-1.23-3.71-.82-6.72-1.88-9.01-3.19l5.08-12.21c2.13,1.26,4.6,2.24,7.41,2.95,2.81.71,5.56,1.07,8.23,1.07,2.24,0,3.75-.19,4.55-.57.79-.38,1.19-.9,1.19-1.56s-.46-1.13-1.39-1.43c-.93-.3-2.16-.53-3.69-.7-1.53-.16-3.21-.37-5.04-.61-1.83-.25-3.67-.62-5.53-1.11-1.86-.49-3.55-1.23-5.08-2.21-1.53-.98-2.76-2.31-3.69-3.97-.93-1.67-1.39-3.78-1.39-6.35,0-2.84.86-5.41,2.58-7.7,1.72-2.29,4.29-4.14,7.7-5.53,3.41-1.39,7.63-2.09,12.66-2.09,3.28,0,6.55.3,9.83.9,3.28.6,6.09,1.53,8.44,2.79l-5.08,12.21c-2.29-1.26-4.55-2.12-6.76-2.58-2.21-.46-4.27-.7-6.19-.7-2.35,0-3.95.22-4.79.66-.85.44-1.27.93-1.27,1.47,0,.66.46,1.15,1.39,1.47s2.16.57,3.69.74c1.53.16,3.21.37,5.04.61,1.83.25,3.66.63,5.49,1.15,1.83.52,3.51,1.27,5.04,2.25,1.53.98,2.76,2.31,3.69,3.97.93,1.67,1.39,3.78,1.39,6.35s-.85,5.18-2.54,7.5c-1.69,2.32-4.26,4.18-7.7,5.57-3.44,1.39-7.76,2.09-12.94,2.09Z"/>
</svg>