<svg width="21" height="19" viewBox="0 0 21 19" fill="none" xmlns="http://www.w3.org/2000/svg">
<path d="M17.2539 16.0918L11.6594 10.5003L17.2539 4.95C17.5343 4.62527 17.5191 4.13797 17.2191 3.83157C16.9191 3.52518 16.4353 3.50299 16.1089 3.78064L10.4979 9.28979L4.98517 3.73946C4.66616 3.42018 4.15093 3.42018 3.83191 3.73946C3.67707 3.89409 3.58997 4.10457 3.58997 4.32414C3.58997 4.54372 3.67707 4.7542 3.83191 4.90882L9.3365 10.4509L3.74194 15.993C3.5871 16.1476 3.5 16.3581 3.5 16.5777C3.5 16.7973 3.5871 17.0077 3.74194 17.1624C3.8963 17.3165 4.10526 17.4024 4.32266 17.4012C4.53608 17.4025 4.74154 17.3197 4.8952 17.1706L10.4979 11.612L16.1089 17.2612C16.2632 17.4153 16.4722 17.5013 16.6896 17.5C16.9042 17.4991 17.1098 17.4133 17.2621 17.2612C17.4159 17.1055 17.5015 16.8944 17.5 16.6748C17.4984 16.4552 17.4099 16.2453 17.2539 16.0918Z" fill="#13315C"/>
</svg>
