<svg width="30" height="30" viewBox="0 0 30 30" fill="none" xmlns="http://www.w3.org/2000/svg">
<path fill-rule="evenodd" clip-rule="evenodd" d="M14.2067 0.959351H15.7934C23.1793 0.959351 29.1667 6.94679 29.1667 14.3327V15.9194C29.1667 23.3052 23.1793 29.2927 15.7934 29.2927H14.2067C6.82082 29.2927 0.833374 23.3052 0.833374 15.9194V14.3327C0.833374 6.94679 6.82082 0.959351 14.2067 0.959351ZM9.33337 16.1885H20.6667C21.2535 16.1885 21.7292 15.7128 21.7292 15.126C21.7292 14.5392 21.2535 14.0635 20.6667 14.0635H9.33337C8.74657 14.0635 8.27087 14.5392 8.27087 15.126C8.27087 15.7128 8.74657 16.1885 9.33337 16.1885Z" fill="#C50000"/>
</svg>
