<svg width="24" height="24" viewBox="0 0 24 24" fill="none" xmlns="http://www.w3.org/2000/svg">
<path d="M11.3107 16.54L7.58073 12.82C7.42257 12.6624 7.33367 12.4483 7.33367 12.225C7.33367 12.0017 7.42257 11.7876 7.58073 11.63C7.91337 11.3113 8.4381 11.3113 8.77073 11.63L11.0607 13.93V3.84C11.0607 3.37608 11.4368 3 11.9007 3C12.3647 3 12.7407 3.37608 12.7407 3.84V13.93L15.0307 11.63C15.3634 11.3113 15.8881 11.3113 16.2207 11.63C16.3789 11.7876 16.4678 12.0017 16.4678 12.225C16.4678 12.4483 16.3789 12.6624 16.2207 12.82L12.4907 16.54C12.3368 16.7009 12.1234 16.7913 11.9007 16.79C11.6776 16.7937 11.4633 16.7029 11.3107 16.54Z" fill="#EEF4ED"/>
<path d="M17.1207 8.42H18.3307C20.847 8.47468 22.8454 10.5536 22.8007 13.07V16.88C22.8454 19.3964 20.847 21.4753 18.3307 21.53L5.47074 21.45C2.9545 21.3953 0.956089 19.3164 1.00074 16.8V12.99C0.971233 11.7762 1.42598 10.6005 2.26462 9.72245C3.10326 8.84442 4.25683 8.33621 5.47074 8.31H6.68074C7.14466 8.31 7.52074 8.68608 7.52074 9.15C7.52074 9.61392 7.14466 9.99 6.68074 9.99H5.47074C4.7014 10.0134 3.97342 10.3437 3.44924 10.9074C2.92507 11.471 2.64832 12.221 2.68074 12.99V16.77C2.64832 17.539 2.92507 18.289 3.44924 18.8526C3.97342 19.4163 4.7014 19.7466 5.47074 19.77L18.3307 19.91C19.1001 19.8866 19.8281 19.5563 20.3522 18.9926C20.8764 18.429 21.1532 17.679 21.1207 16.91V13.1C21.1532 12.331 20.8764 11.581 20.3522 11.0174C19.8281 10.4537 19.1001 10.1234 18.3307 10.1H17.1207C16.6568 10.1 16.2807 9.72392 16.2807 9.26C16.2807 8.79608 16.6568 8.42 17.1207 8.42Z" fill="#EEF4ED"/>
</svg>
