<svg width="24" height="24" viewBox="0 0 24 24" fill="none" xmlns="http://www.w3.org/2000/svg">
<path d="M5.89346 20.5888H11.8452C12.2793 20.5888 12.6311 20.9407 12.6311 21.3747C12.6311 21.8087 12.2793 22.1606 11.8452 22.1606H5.89346C3.19327 22.1548 1.00577 19.9673 1.00001 17.2671V6.9144C0.997229 5.6138 1.51122 4.36536 2.42892 3.44373C3.34662 2.5221 4.59285 2.00278 5.89346 2H9.93814C11.4602 2 12.694 3.23383 12.694 4.75584C12.6997 5.40741 13.2265 5.93421 13.878 5.9399H17.9227C20.6229 5.94567 22.8104 8.13316 22.8162 10.8333C22.8222 11.2768 22.4735 11.6441 22.0303 11.6611C21.8248 11.6697 21.6247 11.594 21.4764 11.4516C21.328 11.3092 21.2442 11.1124 21.2444 10.9067C21.2584 10.0148 20.9153 9.15422 20.2915 8.5166C19.6676 7.87897 18.8148 7.51716 17.9227 7.51167H13.878C12.356 7.51167 11.1222 6.27784 11.1222 4.75584C11.1053 4.11246 10.5817 3.59815 9.93814 3.59273H5.89346C4.05895 3.59273 2.57178 5.07989 2.57178 6.9144V17.2671C2.57178 19.1016 4.05895 20.5888 5.89346 20.5888Z" fill="#8DA9C4"/>
<path d="M19.023 15.4439L17.2521 17.2566L16.6234 16.6594C16.4315 16.4131 16.1121 16.3037 15.8095 16.3807C15.507 16.4578 15.2787 16.7066 15.228 17.0146C15.1773 17.3227 15.3137 17.6316 15.5756 17.8015L16.7596 18.9332C16.9071 19.0724 17.1017 19.151 17.3045 19.1533C17.5178 19.1519 17.7216 19.0651 17.8703 18.9122L20.1861 16.5441C20.4899 16.2316 20.4829 15.732 20.1704 15.4282C19.8579 15.1243 19.3582 15.1314 19.0544 15.4439H19.023Z" fill="#8DA9C4"/>
<path fill-rule="evenodd" clip-rule="evenodd" d="M15.7432 12.0908H19.9346C21.574 12.0965 22.9 13.4272 22.9 15.0667V19.258C22.9 20.0445 22.5876 20.7988 22.0315 21.3549C21.4753 21.911 20.7211 22.2234 19.9346 22.2234H15.7432C14.1038 22.2235 12.7731 20.8975 12.7673 19.258V15.0667C12.7673 13.4231 14.0997 12.0908 15.7432 12.0908ZM19.9346 20.4735C20.6059 20.4735 21.1501 19.9293 21.1501 19.258V15.0667C21.1529 14.7425 21.0261 14.4306 20.7978 14.2004C20.5696 13.9702 20.2588 13.8407 19.9346 13.8407H15.7432C15.0661 13.8407 14.5172 14.3896 14.5172 15.0667V19.258C14.5172 19.5822 14.6467 19.893 14.8769 20.1213C15.1072 20.3495 15.419 20.4763 15.7432 20.4735H19.9346Z" fill="#8DA9C4"/>
</svg>
