<svg width="24" height="24" viewBox="0 0 24 24" fill="none" xmlns="http://www.w3.org/2000/svg">
<path d="M9.93912 2.5929H5.89399C4.05928 2.5929 2.57195 4.08023 2.57195 5.91494V16.2688C2.57195 18.1035 4.05928 19.5908 5.89399 19.5908H11.8464C12.2805 19.5908 12.6324 19.9427 12.6324 20.3768C12.6324 20.8109 12.2805 21.1628 11.8464 21.1628H5.89399C3.19351 21.157 1.00578 18.9693 1.00001 16.2688V5.91494C0.997229 4.61419 1.51128 3.36562 2.42908 2.44389C3.34688 1.52216 4.59324 1.00278 5.89399 1H9.93912C11.4613 1 12.6953 2.23396 12.6953 3.75614C12.7009 4.40778 13.2278 4.93464 13.8795 4.94033H17.9246C20.6251 4.9461 22.8128 7.13383 22.8186 9.83431C22.8246 10.2778 22.4758 10.6452 22.0326 10.6622C21.8271 10.6708 21.627 10.5951 21.4786 10.4526C21.3302 10.3102 21.2464 10.1133 21.2466 9.90767C21.2606 9.01563 20.9175 8.155 20.2936 7.51731C19.6696 6.87961 18.8167 6.51776 17.9246 6.51227H13.8795C12.3573 6.51227 11.1233 5.27831 11.1233 3.75614C11.1064 3.11269 10.5828 2.59832 9.93912 2.5929Z" fill="#8DA9C4"/>
<path d="M19.9471 15.9544C20.0959 16.1148 20.3048 16.2059 20.5235 16.2059C20.7236 16.2053 20.9155 16.1263 21.058 15.9858L22.609 14.5187C22.7633 14.3687 22.8503 14.1627 22.8503 13.9476C22.8503 13.7324 22.7633 13.5264 22.609 13.3764L21.0475 11.9093C20.7236 11.6857 20.2842 11.7362 20.0195 12.0274C19.7547 12.3187 19.7462 12.7608 19.9995 13.062L20.1148 13.1668H18.2914C17.2741 13.1238 16.2836 13.4996 15.5509 14.2065C14.8182 14.9135 14.4073 15.8899 14.4139 16.908C14.4139 17.3421 14.7658 17.694 15.1999 17.694C15.634 17.694 15.9859 17.3421 15.9859 16.908C15.9615 16.3012 16.2015 15.7137 16.6438 15.2976C17.0861 14.8814 17.6872 14.6776 18.2914 14.7388H20.0939L19.9786 14.8436C19.6632 15.1417 19.6492 15.6389 19.9471 15.9544Z" fill="#8DA9C4"/>
<path d="M22.064 16.6565C21.6299 16.6565 21.2781 17.0084 21.2781 17.4425C21.3024 18.0493 21.0624 18.6368 20.6201 19.053C20.1778 19.4691 19.5767 19.673 18.9725 19.6118H17.1491L17.2644 19.4965C17.5263 19.3265 17.6627 19.0176 17.612 18.7095C17.5612 18.4014 17.3329 18.1526 17.0304 18.0756C16.7278 17.9985 16.4083 18.1079 16.2164 18.3542L14.6654 19.8214C14.5111 19.9713 14.4241 20.1774 14.4241 20.3925C14.4241 20.6077 14.5111 20.8137 14.6654 20.9637L16.2269 22.4308C16.5488 22.6397 16.9745 22.5857 17.234 22.3029C17.4934 22.0201 17.5107 21.5913 17.2748 21.2885L17.1596 21.1837H18.9516C19.968 21.2237 20.9567 20.847 21.6888 20.1406C22.4208 19.4343 22.8327 18.4597 22.829 17.4425C22.8318 17.2368 22.7528 17.0385 22.6093 16.8911C22.4659 16.7437 22.2697 16.6593 22.064 16.6565Z" fill="#8DA9C4"/>
</svg>
