<svg width="58" height="60" viewBox="0 0 58 60" fill="none" xmlns="http://www.w3.org/2000/svg">
<path d="M21.2806 30H21.4714C26.7418 30 31.0143 25.5228 31.0143 20V16.075C31.008 13.8318 30.1483 11.6839 28.6258 10.1071C27.1032 8.53038 25.0434 7.65501 22.9029 7.67499H19.7537C15.332 7.68872 11.7508 11.4415 11.7377 16.075V20C11.7377 25.5228 16.0102 30 21.2806 30Z" fill="#EEF4ED"/>
<path d="M41.75 28.125C45.7028 28.125 48.9071 24.7671 48.9071 20.625V17.75C48.9072 14.29 46.2445 11.4774 42.9429 11.45H40.5571C37.2555 11.4774 34.5928 14.29 34.5929 17.75V20.625C34.5929 24.7671 37.7972 28.125 41.75 28.125Z" fill="#EEF4ED"/>
<path d="M53.4161 38.55L53.0344 36.575C52.5832 33.8637 50.3406 31.8826 47.7143 31.875H33.1614C31.383 31.879 29.7252 32.818 28.7478 34.375H11.9286C10.2411 34.3763 8.61851 35.0564 7.39571 36.275C6.34512 37.2838 5.60579 38.5982 5.27242 40.05C5.27242 40.175 5.27242 40.3 5.27242 40.4V41.05L4.77142 43.05C4.26115 45.2381 4.71635 47.5506 6.01122 49.3485C7.30608 51.1464 9.30349 52.2392 11.4514 52.325H31.2051C31.7121 52.3232 32.2169 52.256 32.7081 52.125H33.0183C33.3768 52.0179 33.7276 51.8843 34.068 51.725L34.4497 51.5C34.7344 51.3316 35.0057 51.1393 35.2608 50.925L35.6426 50.6C35.8772 50.3708 36.1002 50.1288 36.3106 49.875C36.3106 49.75 36.5253 49.65 36.6207 49.5C36.8873 49.1329 37.1191 48.7394 37.3126 48.325C37.4143 48.0978 37.502 47.864 37.575 47.625C37.6688 47.3973 37.7485 47.1634 37.8136 46.925C37.8136 46.675 37.9328 46.425 37.9806 46.175V45.8H48.1914C49.8761 45.7477 51.4472 44.8973 52.4629 43.4879C53.4786 42.0785 53.8292 40.2623 53.4161 38.55Z" fill="#EEF4ED"/>
</svg>
