<svg width="14" height="14" viewBox="0 0 14 14" fill="none" xmlns="http://www.w3.org/2000/svg">
<path d="M5.25 4.375C4.96163 4.37877 4.72877 4.61163 4.725 4.9V9.1C4.725 9.38995 4.96005 9.625 5.25 9.625C5.53995 9.625 5.775 9.38995 5.775 9.1V4.9C5.77123 4.61163 5.53837 4.37877 5.25 4.375Z" fill="#0B2545"/>
<path d="M8.75 4.375C8.46163 4.37877 8.22877 4.61163 8.225 4.9V9.1C8.225 9.38995 8.46005 9.625 8.75 9.625C9.03995 9.625 9.275 9.38995 9.275 9.1V4.9C9.27123 4.61163 9.03837 4.37877 8.75 4.375Z" fill="#0B2545"/>
<path fill-rule="evenodd" clip-rule="evenodd" d="M4.2 0H9.8C12.1196 0 14 1.8804 14 4.2V9.8C14 12.1196 12.1196 14 9.8 14H4.2C1.8804 14 0 12.1196 0 9.8V4.2C0 1.8804 1.8804 0 4.2 0ZM11.9643 11.9643C12.5379 11.3907 12.8576 10.6112 12.852 9.8V4.2C12.8576 3.38884 12.5379 2.60927 11.9643 2.03569C11.3907 1.4621 10.6112 1.14236 9.8 1.148H4.2C3.38885 1.14236 2.60928 1.4621 2.03569 2.03569C1.4621 2.60927 1.14236 3.38884 1.148 4.2V9.8C1.14236 10.6112 1.4621 11.3907 2.03569 11.9643C2.60928 12.5379 3.38885 12.8576 4.2 12.852H9.8C10.6112 12.8576 11.3907 12.5379 11.9643 11.9643Z" fill="#0B2545"/>
</svg>
