<svg width="21" height="21" viewBox="0 0 21 21" fill="none" xmlns="http://www.w3.org/2000/svg">
<path fill-rule="evenodd" clip-rule="evenodd" d="M19.6675 13.5643L20.4248 18.8314C20.4795 19.237 20.3563 19.6464 20.087 19.9542C19.8177 20.2621 19.4286 20.4383 19.0198 20.4375H18.8106L13.5494 19.6793C12.8363 19.5809 12.1749 19.2516 11.6662 18.7416L1.96104 9.01541C0.0729562 7.05829 0.0999584 3.94737 2.02173 2.0234C3.9435 0.0994298 7.05088 0.0723966 9.00576 1.96264L18.7308 11.6789C19.2402 12.1882 19.5692 12.8503 19.6675 13.5643ZM12.7722 17.6842C13.0478 17.9492 13.3937 18.1293 13.7687 18.203L18.96 18.8913L18.2326 13.7339C18.159 13.3585 17.9792 13.0122 17.7145 12.7363L7.99937 3.02006C7.34478 2.34727 6.44644 1.96781 5.50831 1.96781C4.57018 1.96781 3.67184 2.34727 3.01725 3.02006C2.36069 3.67354 1.99152 4.56215 1.99152 5.48902C1.99152 6.4159 2.36069 7.30451 3.01725 7.95799L12.7722 17.6842Z" fill="#EEF4ED"/>
<path d="M5.97663 4.9254C5.68217 4.65071 5.22332 4.65882 4.93873 4.94373C4.65414 5.22865 4.64604 5.68803 4.92042 5.98282L9.11536 10.1826C9.40713 10.4743 9.8798 10.4743 10.1716 10.1826C10.463 9.89045 10.463 9.41724 10.1716 9.12514L5.97663 4.9254Z" fill="#EEF4ED"/>
</svg>
