<svg width="21" height="16" viewBox="0 0 21 16" fill="none" xmlns="http://www.w3.org/2000/svg">
<path fill-rule="evenodd" clip-rule="evenodd" d="M10.6 0.350636C10.9328 0.122695 11.3267 0.00068986 11.73 0.00063632C12.2761 -0.0131321 12.804 0.197038 13.1912 0.582334C13.5783 0.96763 13.7911 1.49452 13.78 2.04064V13.4806C13.8063 14.2437 13.3958 14.9551 12.7221 15.3143C12.0483 15.6735 11.2289 15.6177 10.61 15.1706L4.73 11.2506C4.39405 11.0306 4.00159 10.9125 3.6 10.9106H2C0.89543 10.9106 0 10.0152 0 8.91064V6.61064C0 5.50607 0.89543 4.61064 2 4.61064H3.59C3.99159 4.60877 4.38405 4.49068 4.72 4.27064L10.6 0.350636ZM11.73 14.1006C12.0282 14.1006 12.27 13.8589 12.27 13.5606L12.32 2.04064C12.32 1.7424 12.0782 1.50064 11.78 1.50064C11.6734 1.50093 11.5692 1.53219 11.48 1.59064L5.6 5.52064C5.00664 5.9114 4.31044 6.11678 3.6 6.11064H2C1.70176 6.11064 1.46 6.3524 1.46 6.65064V8.95064C1.46 9.24887 1.70176 9.49064 2 9.49064H3.55C4.26044 9.48449 4.95664 9.68987 5.55 10.0806L11.43 14.0106C11.5192 14.0691 11.6234 14.1003 11.73 14.1006Z" fill="#0B2545"/>
</svg>
