<svg width="21" height="16" viewBox="0 0 21 16" fill="none" xmlns="http://www.w3.org/2000/svg">
<path d="M20.15 7.05041H18.48V5.38041C18.48 4.9662 18.1442 4.63041 17.73 4.63041C17.3158 4.63041 16.98 4.9662 16.98 5.38041V7.05041H15.31C14.8958 7.05041 14.56 7.3862 14.56 7.80041C14.56 8.21462 14.8958 8.55041 15.31 8.55041H16.98V10.2204C16.98 10.6346 17.3158 10.9704 17.73 10.9704C18.1442 10.9704 18.48 10.6346 18.48 10.2204V8.55041H20.15C20.5642 8.55041 20.9 8.21462 20.9 7.80041C20.9 7.3862 20.5642 7.05041 20.15 7.05041Z" fill="#0B2545"/>
<path fill-rule="evenodd" clip-rule="evenodd" d="M10.61 0.350409C10.9428 0.122467 11.3367 0.000462352 11.74 0.000408812C12.2843 -0.0105913 12.8096 0.200802 13.1946 0.585787C13.5796 0.970772 13.791 1.49607 13.78 2.04041V13.4804C13.8063 14.2435 13.3958 14.9549 12.7221 15.3141C12.0483 15.6732 11.2289 15.6175 10.61 15.1704L4.73 11.2504C4.39405 11.0304 4.00159 10.9123 3.6 10.9104H2C0.89543 10.9104 0 10.015 0 8.91041V6.61041C0 5.50584 0.89543 4.61041 2 4.61041H3.6C4.00159 4.60854 4.39405 4.49045 4.73 4.27041L10.61 0.350409ZM11.74 14.1004C12.0382 14.1004 12.28 13.8586 12.28 13.5604L12.27 2.04041C12.27 1.89719 12.2131 1.75984 12.1118 1.65857C12.0106 1.5573 11.8732 1.50041 11.73 1.50041C11.6234 1.5007 11.5192 1.53197 11.43 1.59041L5.57001 5.52041C4.97665 5.91117 4.28045 6.11655 3.57001 6.11041H1.97001C1.67177 6.11041 1.43001 6.35218 1.43001 6.65041V8.95041C1.42978 9.09898 1.49077 9.24108 1.59862 9.34326C1.70648 9.44544 1.85167 9.49866 2.00001 9.49041H3.56001C4.27045 9.48426 4.96665 9.68964 5.56001 10.0804L11.44 14.0104C11.5292 14.0689 11.6334 14.1001 11.74 14.1004Z" fill="#0B2545"/>
</svg>
